<?xml version="1.0" encoding="utf-8"?>
<!-- Generator: Adobe Illustrator 16.0.3, SVG Export Plug-In . SVG Version: 6.00 Build 0)  -->
<!DOCTYPE svg PUBLIC "-//W3C//DTD SVG 1.1//EN" "http://www.w3.org/Graphics/SVG/1.1/DTD/svg11.dtd">
<svg version="1.1" id="Шар_1" xmlns="http://www.w3.org/2000/svg" xmlns:xlink="http://www.w3.org/1999/xlink" x="0px" y="0px"
	 width="48px" height="48px" viewBox="0 0 48 48" enable-background="new 0 0 48 48" xml:space="preserve">
<path opacity="0.5" fill="#FFFFFF" enable-background="new    " d="M24,2.75c11.717,0,21.25,9.533,21.25,21.25
	S35.717,45.25,24,45.25S2.75,35.717,2.75,24S12.283,2.75,24,2.75"/>
<path fill="#689F38" d="M24,2.75c11.717,0,21.25,9.533,21.25,21.25S35.717,45.25,24,45.25S2.75,35.717,2.75,24S12.283,2.75,24,2.75
	 M24,0C10.745,0,0,10.745,0,24s10.745,24,24,24s24-10.745,24-24S37.255,0,24,0L24,0z"/>
<polygon fill="#689F38" points="33.82,20.24 24,10.419 14.179,20.24 16.144,22.204 24,14.348 31.855,22.204 "/>
<g>
	<path fill="#689F38" d="M10.154,31.524h-0.35v2.994H9.075v-6.468h0.729v3.012l0.34-0.129l1.771-2.883h0.837l-1.78,2.79
		l-0.341,0.296l0.399,0.369l1.975,3.013H12.08L10.154,31.524z"/>
	<path fill="#689F38" d="M20.736,30.268l0.088-0.979h-0.039l-0.312,0.914l-1.371,2.81h-0.243l-1.439-2.81l-0.302-0.914h-0.039
		l0.137,0.979v4.251h-0.7v-6.468h0.612l1.644,3.179l0.243,0.757h0.02l0.233-0.767l1.557-3.169h0.642v6.468h-0.729V30.268z"/>
	<path fill="#689F38" d="M23.003,28.051h3.024v0.637h-2.295v2.19h2.111v0.638h-2.111v2.365h2.344v0.638h-3.073V28.051z"/>
	<path fill="#689F38" d="M30.706,31.534h-2.51v2.984h-0.729v-6.468h0.729v2.846h2.51v-2.846h0.729v6.468h-0.729V31.534z"/>
	<path fill="#689F38" d="M33.701,30.896h0.925c0.032-0.955,0.224-1.687,0.573-2.194c0.351-0.509,0.879-0.763,1.586-0.763
		c0.396,0,0.73,0.079,1.007,0.235c0.275,0.157,0.496,0.381,0.661,0.67c0.165,0.29,0.285,0.641,0.359,1.054
		c0.075,0.413,0.112,0.875,0.112,1.386c0,1.091-0.17,1.921-0.511,2.49c-0.341,0.57-0.887,0.855-1.639,0.855
		c-0.383,0-0.707-0.073-0.973-0.218c-0.267-0.145-0.486-0.353-0.661-0.623c-0.176-0.271-0.306-0.597-0.39-0.976
		s-0.13-0.805-0.136-1.279h-0.915v2.984h-0.729v-6.468h0.729V30.896z M35.385,31.284c0,0.364,0.023,0.709,0.072,1.035
		c0.048,0.326,0.127,0.614,0.236,0.864c0.109,0.249,0.254,0.446,0.435,0.591c0.181,0.146,0.402,0.218,0.667,0.218
		c0.482,0,0.83-0.221,1.043-0.661c0.212-0.44,0.318-1.122,0.318-2.047c0-0.356-0.021-0.7-0.063-1.03
		c-0.042-0.329-0.114-0.617-0.218-0.863c-0.103-0.247-0.241-0.444-0.415-0.592s-0.396-0.222-0.666-0.222
		c-0.483,0-0.839,0.222-1.067,0.665S35.385,30.366,35.385,31.284z"/>
</g>
</svg>
